# xmcd CD database file
#
# Track frame offsets:
#	150
#	6523
#	16975
#	25638
#	36650
#	43350
#	51438
#	65928
#	70790
#	81725
#	87563
#	96963
#	117363
#	122663
#	135945
#	142660
#	152963
#	161938
#
# Disc length: 2358 seconds
#
# Revision: 0
# Processed by: cddbd v1.5.2PL0 Copyright (c) Steve Scherf et al.
# Submitted via: CDex 1.70beta2
#
DISCID=0b093412
DTITLE=Tammy Wynette - Queen of Country
DYEAR=1900
DGENRE=Country
TTITLE0=Welcome To My World
TTITLE1=Another Chance
TTITLE2=He Says The Same Things To Me
TTITLE3=Fairy Tales
TTITLE4=I Can't Help It
TTITLE5=When The Green Grass Grows Over Me
TTITLE6='Till I Can Make It On My Own
TTITLE7=You're A Good Girl Gone Bad
TTITLE8=D.I.V.O.R.C.E.
TTITLE9=Singing My Song
TTITLE10=No Sign Of Living
TTITLE11=Medley: Amazing Grace
TTITLE12=I'll Fly Away
TTITLE13=Will The Circle Be Unbroken
TTITLE14=I Saw The Light
TTITLE15=Womanhood
TTITLE16=Much Better Luck Then Me
TTITLE17=Crying In The Rain
EXTD=
EXTT0=
EXTT1=
EXTT2=
EXTT3=
EXTT4=
EXTT5=
EXTT6=
EXTT7=
EXTT8=
EXTT9=
EXTT10=
EXTT11=
EXTT12=
EXTT13=
EXTT14=
EXTT15=
EXTT16=
EXTT17=
PLAYORDER=
